<?xml version="1.0" encoding="utf-8"?>
<!-- Generator: Adobe Illustrator 16.0.0, SVG Export Plug-In . SVG Version: 6.00 Build 0)  -->
<!DOCTYPE svg PUBLIC "-//W3C//DTD SVG 1.1//EN" "http://www.w3.org/Graphics/SVG/1.1/DTD/svg11.dtd">
<svg version="1.1" id="レイヤー_1" xmlns="http://www.w3.org/2000/svg" xmlns:xlink="http://www.w3.org/1999/xlink" x="0px"
	 y="0px" width="563.324px" height="116.729px" viewBox="11.473 363.576 563.324 116.729"
	 enable-background="new 11.473 363.576 563.324 116.729" xml:space="preserve">
<g id="ロゴ">
	<g>
		<path fill="#254874" d="M162.531,437.4l17.418-1.69c1.045,5.845,3.18,10.127,6.374,12.877c3.208,2.75,7.534,4.126,12.963,4.126
			c5.772,0,10.112-1.232,13.034-3.667c2.922-2.436,4.397-5.286,4.397-8.552c0-2.105-0.616-3.882-1.848-5.371
			c-1.231-1.461-3.38-2.736-6.432-3.839c-2.105-0.716-6.875-2.005-14.338-3.867c-9.597-2.378-16.329-5.314-20.196-8.767
			c-5.443-4.87-8.165-10.828-8.165-17.833c0-4.512,1.275-8.737,3.839-12.662c2.564-3.925,6.245-6.933,11.059-8.995
			c4.812-2.048,10.628-3.08,17.446-3.08c11.144,0,19.509,2.435,25.138,7.319c5.615,4.884,8.58,11.387,8.853,19.523l-17.891,0.788
			c-0.773-4.555-2.406-7.821-4.928-9.826c-2.521-2.005-6.302-2.994-11.344-2.994c-5.2,0-9.282,1.074-12.219,3.208
			c-1.891,1.361-2.836,3.208-2.836,5.5c0,2.106,0.889,3.896,2.664,5.372c2.249,1.905,7.735,3.882,16.444,5.944
			c8.708,2.062,15.14,4.168,19.322,6.374c4.168,2.206,7.435,5.199,9.798,9.023c2.363,3.811,3.538,8.509,3.538,14.124
			c0,5.07-1.419,9.84-4.24,14.266c-2.822,4.44-6.818,7.721-11.975,9.884c-5.171,2.148-11.603,3.237-19.309,3.237
			c-11.201,0-19.81-2.578-25.825-7.764C167.287,454.875,163.692,447.312,162.531,437.4L162.531,437.4z"/>
		<path fill="#254874" d="M259.159,421.602l-15.412-2.765c1.719-6.217,4.712-10.814,8.938-13.809
			c4.226-2.965,10.528-4.469,18.879-4.469c7.577,0,13.207,0.902,16.931,2.693c3.71,1.805,6.316,4.082,7.835,6.832
			c1.504,2.765,2.264,7.821,2.264,15.212l-0.187,19.838c0,5.644,0.286,9.812,0.831,12.477c0.529,2.679,1.561,5.558,3.051,8.623
			h-16.816c-0.443-1.132-0.988-2.808-1.647-5.014c-0.286-1.017-0.486-1.676-0.602-1.991c-2.893,2.822-6.001,4.928-9.31,6.331
			c-3.31,1.418-6.833,2.12-10.571,2.12c-6.617,0-11.831-1.79-15.642-5.386c-3.811-3.581-5.715-8.121-5.715-13.607
			c0-3.609,0.873-6.861,2.606-9.712c1.733-2.836,4.168-5.027,7.291-6.531c3.122-1.504,7.635-2.821,13.521-3.953
			c7.95-1.49,13.45-2.879,16.516-4.168v-1.705c0-3.266-0.816-5.586-2.421-6.976c-1.619-1.403-4.67-2.091-9.139-2.091
			c-3.022,0-5.386,0.602-7.076,1.79C261.58,416.53,260.205,418.622,259.159,421.602z M281.906,435.396
			c-2.177,0.744-5.629,1.59-10.342,2.621c-4.713,1.002-7.807,1.99-9.253,2.95c-2.221,1.576-3.338,3.566-3.338,6.002
			c0,2.378,0.889,4.426,2.664,6.174c1.776,1.732,4.025,2.592,6.762,2.592c3.064,0,6.001-1.017,8.78-3.021
			c2.048-1.533,3.409-3.409,4.054-5.63c0.443-1.461,0.673-4.226,0.673-8.293V435.396z"/>
		<path fill="#254874" d="M370.656,466.248h-16.988v-32.772c0-6.947-0.372-11.431-1.089-13.464c-0.73-2.034-1.905-3.61-3.538-4.741
			c-1.633-1.132-3.595-1.705-5.901-1.705c-2.95,0-5.586,0.803-7.921,2.436c-2.349,1.604-3.938,3.753-4.812,6.402
			c-0.859,2.664-1.304,7.577-1.304,14.754v29.091h-16.988v-64.213h15.785v9.425c5.601-7.262,12.662-10.886,21.171-10.886
			c3.738,0,7.176,0.673,10.27,2.02c3.123,1.347,5.458,3.079,7.048,5.171c1.59,2.091,2.707,4.483,3.322,7.133
			c0.631,2.665,0.932,6.46,0.932,11.445v39.905H370.656z"/>
		<path fill="#254874" d="M378.82,447.914l17.045-2.593c0.745,3.309,2.206,5.815,4.427,7.534c2.22,1.705,5.313,2.564,9.311,2.564
			c4.396,0,7.706-0.803,9.912-2.406c1.489-1.132,2.234-2.65,2.234-4.541c0-1.274-0.401-2.363-1.203-3.194
			c-0.846-0.816-2.736-1.562-5.687-2.234c-13.708-3.037-22.402-5.787-26.056-8.294c-5.085-3.466-7.62-8.293-7.62-14.467
			c0-5.558,2.191-10.227,6.589-14.037c4.412-3.781,11.216-5.672,20.455-5.672c8.78,0,15.312,1.433,19.595,4.297
			c4.269,2.865,7.219,7.104,8.838,12.705l-16.028,2.965c-0.688-2.506-1.991-4.426-3.911-5.758c-1.904-1.332-4.641-2.005-8.192-2.005
			c-4.483,0-7.678,0.63-9.611,1.891c-1.304,0.888-1.948,2.033-1.948,3.438c0,1.218,0.573,2.234,1.69,3.079
			c1.518,1.132,6.832,2.722,15.885,4.771c9.053,2.062,15.369,4.583,18.965,7.562c3.552,3.022,5.328,7.233,5.328,12.634
			c0,5.901-2.464,10.957-7.377,15.197c-4.927,4.226-12.203,6.346-21.829,6.346c-8.752,0-15.67-1.776-20.77-5.314
			C383.733,458.814,380.396,454.002,378.82,447.914z"/>
		<path fill="#254874" d="M463.286,421.602l-15.412-2.765c1.719-6.217,4.713-10.814,8.938-13.809
			c4.226-2.965,10.514-4.469,18.878-4.469c7.578,0,13.207,0.902,16.931,2.693c3.696,1.805,6.317,4.082,7.821,6.832
			c1.519,2.765,2.263,7.821,2.263,15.212l-0.186,19.838c0,5.644,0.271,9.812,0.816,12.477c0.544,2.679,1.561,5.558,3.051,8.623
			h-16.802c-0.444-1.132-0.988-2.808-1.633-5.014c-0.286-1.017-0.473-1.676-0.602-1.991c-2.894,2.822-6.002,4.928-9.311,6.331
			c-3.309,1.418-6.832,2.12-10.585,2.12c-6.618,0-11.817-1.79-15.628-5.386c-3.81-3.581-5.715-8.121-5.715-13.607
			c0-3.609,0.859-6.861,2.607-9.712c1.732-2.836,4.168-5.027,7.29-6.531c3.123-1.504,7.635-2.821,13.508-3.953
			c7.949-1.49,13.45-2.879,16.515-4.168v-1.705c0-3.266-0.816-5.586-2.42-6.976c-1.619-1.403-4.67-2.091-9.125-2.091
			c-3.036,0-5.386,0.602-7.09,1.79C465.707,416.53,464.332,418.622,463.286,421.602L463.286,421.602z M486.047,435.396
			c-2.177,0.744-5.629,1.59-10.342,2.621c-4.727,1.002-7.807,1.99-9.253,2.95c-2.221,1.576-3.323,3.566-3.323,6.002
			c0,2.378,0.888,4.426,2.65,6.174c1.775,1.732,4.039,2.592,6.774,2.592c3.051,0,5.987-1.017,8.78-3.021
			c2.049-1.533,3.409-3.409,4.054-5.63c0.43-1.461,0.674-4.226,0.674-8.293v-3.395H486.047z"/>
		<path fill="#254874" d="M574.797,466.248h-16.988v-32.772c0-6.947-0.357-11.431-1.074-13.464c-0.73-2.034-1.905-3.61-3.552-4.741
			c-1.633-1.132-3.596-1.705-5.901-1.705c-2.937,0-5.572,0.803-7.921,2.436c-2.35,1.604-3.939,3.753-4.813,6.402
			c-0.859,2.664-1.289,7.577-1.289,14.754v29.091h-17.002v-64.213h15.771v9.425c5.614-7.262,12.677-10.886,21.17-10.886
			c3.753,0,7.177,0.673,10.285,2.02s5.457,3.079,7.032,5.171c1.604,2.091,2.708,4.483,3.338,7.133
			c0.63,2.665,0.931,6.46,0.931,11.445v39.905H574.797z"/>
	</g>
</g>
<g id="ガイド">
	<g>
		<path fill="#254874" d="M59.687,473.897c0-3.452-0.916-5.286-3.395-6.804l-41.739-26.929c-1.332-0.859-3.08,0.101-3.08,1.676
			v5.629c0,2.264,1.146,4.384,5.314,7.076l39.318,25.382c1.547,1.003,3.596-0.115,3.596-1.963L59.687,473.897z"/>
		<path fill="#254874" d="M59.687,450.449c0-3.452-0.916-5.285-3.395-6.804l-41.739-26.929c-1.332-0.859-3.08,0.101-3.08,1.676v5.63
			c0,2.263,1.146,4.383,5.314,7.075l39.318,25.382c1.547,1.003,3.596-0.114,3.596-1.962L59.687,450.449z"/>
		<path fill="#254874" d="M61.678,369.119v-0.072l-0.028-0.301c-0.144-2.936-2.521-5.171-5.458-5.171
			c-1.146,0-2.248,0.358-3.193,1.046l-0.53,0.387v-0.029l-35.81,23.133c-3.352,2.421-5.257,5.586-5.229,9.525
			c0.029,3.939,2.006,7.562,5.386,9.912l39.176,25.382c3.538,2.234,6.073,3.194,8.509,3.194c2.32,0,4.727-0.889,7.792-2.851
			l33.689-21.672v25.754c0,3.581-0.387,8.594-3.725,10.729l-29.335,18.936c-1.676,1.018-3.609,3.939-3.609,6.174v4.855
			c0,1.39,1.274,2.249,2.464,2.249c0.486,0,0.945-0.144,1.332-0.415l38.33-24.737c5.687-3.71,6.145-9.139,6.145-15.326
			c0-3.854,0.029-34.75,0-35.223c-0.258-3.695-3.853-6.574-8.164-6.574c-1.504,0-3.008,0.387-4.34,1.103l-36.054,23.448
			c-1.561,1.046-2.95,1.533-4.368,1.533c-1.633,0-3.28-0.646-5.529-2.178L21.7,397.853l37.643-24.365l0.043-0.029
			C60.804,372.428,61.635,370.852,61.678,369.119z"/>
	</g>
</g>
</svg>
